<?xml version="1.0" standalone="no"?>
<!DOCTYPE svg PUBLIC "-//W3C//DTD SVG 20010904//EN"
 "http://www.w3.org/TR/2001/REC-SVG-20010904/DTD/svg10.dtd">
<svg version="1.0" xmlns="http://www.w3.org/2000/svg"
 width="1437.000000pt" height="320.000000pt" viewBox="0 0 1437.000000 320.000000"
 preserveAspectRatio="xMidYMid meet">
<metadata>
Created by potrace 1.16, written by Peter Selinger 2001-2019
</metadata>
<g transform="translate(0.000000,320.000000) scale(0.100000,-0.100000)"
fill="#000000" stroke="none">
<path d="M5682 2728 c3 -119 5 -143 18 -143 11 0 16 14 18 58 3 62 30 107 63
107 18 0 26 -29 31 -125 2 -28 8 -40 18 -40 20 0 26 139 7 175 -14 27 -61 40
-80 21 -25 -25 -37 -11 -37 39 0 44 -3 50 -20 50 -20 0 -20 -5 -18 -142z"/>
<path d="M11402 2728 c3 -119 5 -143 18 -143 11 0 16 15 18 61 2 50 8 66 27
84 41 38 55 22 55 -64 0 -75 10 -94 40 -76 9 6 11 29 8 89 -4 65 -9 84 -24 96
-19 15 -52 15 -86 0 -16 -6 -18 -1 -18 44 0 45 -3 51 -20 51 -20 0 -20 -5 -18
-142z"/>
<path d="M13688 2734 c-3 -134 2 -157 28 -147 10 3 14 23 14 62 0 47 4 61 23
79 13 12 29 22 35 22 19 0 32 -45 32 -111 0 -52 2 -60 18 -57 13 3 18 16 20
63 6 115 -29 166 -94 136 -35 -15 -34 -16 -34 39 0 43 -3 50 -19 50 -19 0 -20
-9 -23 -136z"/>
<path d="M5509 2843 c-3 -14 -6 -37 -8 -55 0 -11 -9 -18 -21 -18 -29 0 -27
-38 3 -42 19 -3 23 -10 27 -66 6 -69 16 -82 67 -82 44 0 63 9 63 31 0 22 -1
22 -33 10 -40 -15 -59 6 -55 59 3 44 4 45 43 50 27 3 40 10 40 20 0 10 -13 17
-40 20 -37 5 -40 8 -45 40 -3 23 -11 36 -22 38 -10 2 -19 0 -19 -5z"/>
<path d="M7497 2843 c-4 -3 -7 -21 -7 -40 0 -29 -3 -33 -26 -33 -33 0 -30 -33
4 -38 20 -3 22 -9 22 -62 0 -49 4 -61 22 -74 37 -26 108 -19 108 11 0 12 -7
14 -29 10 -44 -9 -63 11 -59 63 3 44 4 45 43 50 27 3 40 10 40 20 0 10 -13 17
-40 20 -38 5 -40 7 -43 43 -3 34 -18 48 -35 30z"/>
<path d="M9067 2843 c-4 -3 -7 -21 -7 -40 0 -29 -3 -33 -26 -33 -33 0 -30 -33
4 -38 20 -3 22 -9 22 -62 0 -49 4 -61 22 -74 36 -26 108 -19 108 10 0 9 -12
13 -35 12 -47 -2 -57 10 -53 63 3 43 4 44 43 49 27 3 40 10 40 20 0 10 -13 17
-40 20 -38 5 -40 7 -43 43 -3 34 -18 48 -35 30z"/>
<path d="M11867 2843 c-4 -3 -7 -21 -7 -40 0 -29 -3 -33 -25 -33 -18 0 -25 -5
-25 -20 0 -15 7 -20 25 -20 24 0 25 -3 25 -59 0 -51 3 -62 22 -75 37 -26 108
-19 108 11 0 11 -7 14 -27 10 -47 -9 -63 7 -63 63 l0 50 40 0 c22 0 40 5 40
10 0 6 0 13 0 18 1 4 -16 9 -37 12 -36 5 -38 7 -41 43 -3 34 -18 48 -35 30z"/>
<path d="M13517 2844 c-4 -4 -7 -22 -7 -41 0 -25 -4 -33 -18 -33 -10 0 -21 -3
-25 -6 -11 -11 5 -34 24 -34 16 0 19 -8 19 -53 0 -66 24 -97 75 -97 44 0 65 9
65 27 0 12 -8 14 -34 10 -43 -7 -53 4 -57 63 l-4 45 40 5 c27 3 41 10 43 23 3
14 -4 17 -37 17 -32 0 -41 4 -42 18 -1 9 -2 26 -3 37 -1 20 -26 32 -39 19z"/>
<path d="M1297 2803 c-4 -3 -7 -57 -7 -120 l0 -113 74 0 c59 0 78 4 99 21 53
41 56 142 6 195 -20 21 -32 24 -94 24 -39 0 -75 -3 -78 -7z"/>
<path d="M5927 2770 c-76 -60 -36 -190 58 -190 51 0 75 11 75 32 0 21 0 21
-65 3 -22 -7 -69 30 -60 46 4 5 33 9 66 9 l59 0 0 35 c0 72 -77 109 -133 65z"/>
<path d="M7064 2756 c-27 -27 -34 -42 -34 -74 0 -57 43 -102 98 -102 50 0 72
8 72 26 0 10 -10 14 -32 13 -48 -3 -73 8 -87 38 -25 55 22 105 83 89 14 -3 28
-1 31 4 12 20 -17 40 -57 40 -32 0 -47 -7 -74 -34z"/>
<path d="M7278 2768 c-33 -29 -48 -59 -48 -97 0 -71 43 -106 103 -83 23 9 34
9 44 0 26 -21 34 6 31 103 l-3 94 -50 3 c-40 2 -55 -2 -77 -20z"/>
<path d="M8638 2780 c-10 -6 -22 -20 -28 -30 -16 -30 3 -55 60 -81 27 -12 50
-28 50 -35 0 -17 -36 -24 -73 -13 -44 12 -47 12 -47 -10 0 -21 26 -31 85 -31
55 1 77 20 73 62 -3 28 -10 37 -52 58 -26 14 -49 30 -50 35 0 6 21 11 47 13
39 3 48 6 45 20 -4 20 -82 28 -110 12z"/>
<path d="M8848 2768 c-34 -30 -48 -59 -48 -101 0 -67 57 -106 111 -76 15 8 24
7 35 -2 27 -22 35 4 32 102 l-3 94 -50 3 c-40 2 -55 -2 -77 -20z"/>
<path d="M10317 2783 c-12 -11 -8 -191 4 -199 20 -12 33 15 30 63 -2 42 2 52
28 77 17 16 36 26 45 23 16 -6 31 -83 24 -122 -6 -29 11 -48 31 -35 21 12 9
155 -15 181 -19 21 -46 24 -76 8 -14 -8 -23 -8 -31 0 -12 12 -30 14 -40 4z"/>
<path d="M11648 2768 c-35 -31 -48 -59 -48 -105 0 -67 55 -102 111 -72 15 8
24 7 35 -2 27 -22 35 4 32 102 l-3 94 -50 3 c-40 2 -55 -2 -77 -20z"/>
<path d="M13034 2748 c3 -24 9 -68 12 -98 4 -30 11 -58 16 -61 20 -13 48 3 48
27 0 30 21 75 31 68 5 -3 9 -13 9 -23 0 -28 31 -82 43 -78 15 5 36 63 36 104
1 17 5 43 11 58 8 20 13 24 27 16 10 -5 26 -12 36 -15 14 -4 17 -18 17 -80 0
-72 1 -76 24 -82 35 -8 60 -1 64 18 2 11 -5 18 -20 20 -21 3 -23 9 -28 83 l-5
80 -71 1 -71 1 -11 -44 c-12 -45 -32 -50 -32 -9 0 12 -6 31 -14 41 -17 24 -46
13 -46 -18 0 -14 -7 -30 -15 -37 -12 -10 -15 -7 -20 17 -11 48 -14 53 -31 53
-13 0 -15 -7 -10 -42z"/>
<path d="M1594 2750 c-56 -23 -72 -108 -31 -156 32 -37 102 -37 135 1 63 74
-16 193 -104 155z"/>
<path d="M1778 2730 c-27 -28 -30 -36 -25 -77 6 -60 31 -84 86 -85 51 0 95 32
73 54 -10 10 -18 9 -40 -4 -26 -16 -31 -16 -50 -2 -33 22 -30 81 3 96 20 9 28
8 43 -5 23 -21 52 -22 52 -3 0 22 -49 56 -82 56 -20 0 -40 -10 -60 -30z"/>
<path d="M1966 2753 c-3 -4 -6 -40 -6 -80 0 -95 7 -102 99 -101 l71 0 0 89 c0
88 0 89 -25 89 -24 0 -25 -3 -25 -54 0 -70 -7 -86 -36 -86 -29 0 -44 32 -44
95 0 40 -17 64 -34 48z"/>
<path d="M2187 2753 c-4 -3 -7 -46 -7 -95 0 -81 2 -88 20 -88 18 0 20 7 20 57
0 66 20 99 51 82 16 -8 19 -21 19 -74 0 -63 1 -65 25 -65 24 0 25 2 25 64 0
67 13 92 44 80 13 -5 16 -21 16 -76 l0 -69 27 3 c26 3 27 4 24 73 -1 38 -7 77
-12 86 -14 27 -46 32 -81 15 -18 -10 -34 -12 -37 -7 -13 20 -58 23 -76 5 -16
-16 -18 -16 -27 -1 -10 18 -20 21 -31 10z"/>
<path d="M2533 2750 c-53 -21 -66 -117 -22 -161 33 -33 139 -21 139 16 0 18
-14 19 -42 4 -28 -15 -68 -3 -68 21 0 18 7 20 60 20 59 0 60 1 60 28 -1 34
-19 58 -54 72 -32 12 -43 12 -73 0z"/>
<path d="M2713 2753 c-9 -3 -13 -32 -13 -94 0 -88 0 -89 25 -89 24 0 25 2 25
65 0 55 3 66 21 75 35 19 49 -3 49 -76 0 -62 1 -64 25 -64 24 0 25 2 25 64 0
36 -4 76 -10 90 -12 33 -52 43 -84 23 -19 -13 -26 -13 -37 -2 -8 7 -20 11 -26
8z"/>
<path d="M1227 2373 c677 -2 1789 -2 2470 0 681 1 127 2 -1232 2 -1359 0
-1916 -1 -1238 -2z"/>
<path d="M12988 2373 c254 -2 670 -2 925 0 254 1 46 2 -463 2 -509 0 -717 -1
-462 -2z"/>
<path d="M10270 2088 c-43 -16 -60 -47 -60 -115 0 -34 5 -73 11 -86 25 -54 97
-62 133 -14 25 34 29 139 7 180 -17 32 -57 48 -91 35z m49 -28 c15 0 31 -52
31 -100 0 -37 -6 -56 -24 -77 -22 -25 -26 -26 -49 -14 -34 18 -52 88 -36 140
13 40 37 64 57 56 8 -3 17 -5 21 -5z"/>
<path d="M11654 2081 c-42 -26 -60 -93 -43 -163 13 -57 42 -81 90 -76 97 9
108 212 13 248 -31 12 -23 13 -60 -9z m67 -30 c19 -15 23 -28 23 -83 1 -51 -3
-71 -18 -87 -24 -26 -40 -27 -66 -1 -16 16 -20 33 -20 85 0 52 4 69 20 85 25
25 32 25 61 1z"/>
<path d="M13424 2085 c-16 -7 -35 -24 -42 -39 -15 -34 -16 -127 -1 -159 25
-55 97 -62 133 -14 25 34 29 138 7 180 -19 35 -59 48 -97 32z m55 -25 c15 0
31 -52 31 -100 0 -37 -6 -56 -24 -77 -22 -25 -26 -26 -49 -14 -34 18 -50 82
-36 137 11 42 35 67 57 59 8 -3 17 -5 21 -5z"/>
<path d="M1715 2021 c-32 -14 -54 -44 -60 -86 -9 -53 21 -95 68 -95 30 1 67
19 67 34 0 10 -35 7 -47 -5 -16 -16 -65 16 -61 39 2 13 16 18 63 20 73 4 82
11 65 52 -19 45 -50 59 -95 41z"/>
<path d="M2183 2023 c-12 -2 -24 -11 -27 -20 -8 -21 1 -30 16 -15 17 17 65 15
72 -4 9 -24 -2 -34 -37 -34 -54 0 -82 -21 -82 -60 0 -29 5 -36 28 -44 19 -7
34 -7 46 1 11 7 23 8 34 1 12 -6 18 -5 21 4 28 106 31 141 13 156 -16 13 -56
21 -84 15z"/>
<path d="M2754 2020 c-24 -10 -39 -28 -30 -37 3 -3 12 0 20 6 23 19 71 10 71
-13 0 -16 -11 -22 -55 -30 -46 -9 -56 -15 -64 -38 -8 -22 -6 -32 9 -48 20 -22
55 -26 73 -8 8 8 15 8 26 -2 13 -10 17 -8 25 12 14 36 23 131 14 144 -11 16
-64 25 -89 14z"/>
<path d="M705 1390 c-3 -5 -10 -33 -15 -62 -12 -62 -24 -122 -35 -160 -6 -22
-4 -28 9 -28 9 0 18 11 21 28 21 101 39 131 77 132 10 0 21 -8 27 -17 9 -18 1
-91 -14 -125 -5 -14 -2 -18 14 -18 15 0 21 6 21 21 0 12 5 39 11 60 9 30 9 45
-1 69 -12 30 -16 32 -57 28 l-44 -3 7 42 c6 41 -5 58 -21 33z"/>
<path d="M13399 1361 c-26 -27 -29 -36 -29 -96 0 -98 43 -149 107 -124 36 13
51 36 59 86 9 59 -3 111 -31 139 -33 32 -70 31 -106 -5z m95 -26 c19 -28 21
-103 4 -140 -14 -31 -54 -43 -75 -23 -34 35 -36 134 -2 174 18 22 55 17 73
-11z"/>
<path d="M891 1296 c-31 -33 -35 -121 -7 -142 26 -19 90 -18 106 1 18 22 4 31
-25 15 -21 -11 -29 -11 -50 0 -14 7 -25 22 -25 32 0 15 8 18 59 18 63 0 86 14
75 46 -21 59 -91 74 -133 30z"/>
<path d="M1370 1305 c-17 -21 -4 -32 20 -17 26 16 45 15 60 -3 19 -23 -5 -45
-49 -45 -60 0 -92 -39 -65 -79 16 -23 68 -29 80 -10 5 8 9 7 14 -1 17 -27 36
0 48 64 16 85 5 106 -54 106 -25 0 -47 -6 -54 -15z"/>
<path d="M1940 1305 c-18 -22 -4 -31 24 -15 28 14 54 8 63 -16 8 -21 -13 -34
-58 -34 -40 0 -69 -24 -69 -57 0 -32 22 -43 81 -41 l55 1 12 52 c15 64 15 98
0 113 -17 17 -93 15 -108 -3z"/>
<path d="M3025 1293 c-34 -38 -38 -102 -8 -135 20 -22 85 -24 103 -3 18 22 8
26 -29 12 -30 -11 -34 -10 -52 12 -11 13 -16 28 -12 32 4 4 35 9 68 11 l60 3
-2 33 c-2 45 -19 62 -64 62 -29 0 -44 -7 -64 -27z"/>
<path d="M3520 1305 c-18 -22 -4 -31 24 -16 30 17 60 11 64 -13 5 -24 -14 -36
-59 -36 -55 0 -91 -54 -57 -88 15 -15 78 -16 78 -2 0 6 8 5 20 -2 10 -7 22 -9
25 -6 4 3 11 38 17 77 8 55 8 74 -2 86 -17 20 -93 20 -110 0z"/>
<path d="M5734 680 c-30 -12 -57 -51 -44 -64 6 -6 18 0 34 17 29 31 48 34 71
11 25 -26 11 -60 -56 -132 -33 -35 -57 -67 -54 -73 4 -5 40 -9 81 -9 59 0 74
3 74 15 0 11 -12 15 -50 15 -27 0 -50 3 -50 8 0 4 13 21 28 37 53 58 72 88 72
115 0 46 -59 80 -106 60z"/>
<path d="M8854 671 c-38 -23 -56 -90 -42 -155 19 -90 99 -116 146 -46 20 30
23 44 20 99 -4 57 -8 67 -36 92 -38 34 -47 35 -88 10z m63 -19 c17 -11 33 -58
33 -97 0 -46 -15 -82 -40 -95 -18 -10 -26 -8 -46 11 -20 19 -24 32 -24 86 0
50 4 67 20 83 21 21 37 25 57 12z"/>
<path d="M10264 680 c-36 -14 -54 -54 -54 -119 0 -95 31 -137 95 -129 45 5 70
48 70 122 0 71 -16 108 -52 125 -28 13 -31 13 -59 1z m52 -28 c22 -14 34 -51
34 -102 0 -41 -5 -56 -25 -75 -13 -14 -28 -25 -32 -25 -20 1 -42 29 -52 68
-23 82 25 168 75 134z"/>
<path d="M990 593 c-45 -40 -52 -102 -17 -137 29 -28 53 -32 92 -14 29 13 36
45 8 33 -39 -16 -61 -16 -77 0 -28 28 -13 40 52 43 l62 3 0 34 c0 64 -67 85
-120 38z"/>
<path d="M1473 610 c-13 -5 -23 -14 -23 -19 0 -15 18 -23 25 -11 10 16 65 12
72 -6 8 -20 -13 -34 -52 -34 -43 0 -75 -25 -75 -59 0 -38 39 -59 81 -44 17 7
31 8 35 2 11 -19 21 2 33 72 11 59 11 73 -1 85 -18 18 -68 26 -95 14z"/>
<path d="M1840 532 c0 -69 3 -91 14 -95 17 -7 27 4 52 58 38 82 51 80 56 -9 2
-28 8 -51 15 -53 14 -5 105 174 93 182 -11 7 -18 -4 -53 -75 l-32 -65 -3 60
c-3 59 -16 90 -34 79 -5 -3 -20 -30 -33 -59 -14 -29 -31 -55 -40 -59 -12 -4
-15 5 -15 54 0 32 -4 62 -10 65 -6 4 -10 -26 -10 -83z"/>
<path d="M2963 610 c-28 -11 -50 -45 -58 -92 -6 -31 -3 -41 19 -62 14 -15 34
-26 45 -26 30 0 71 21 71 37 0 10 -5 11 -19 3 -28 -15 -57 -12 -76 6 -27 27
-12 39 56 44 57 4 64 8 67 27 4 27 -38 73 -65 72 -10 0 -28 -4 -40 -9z"/>
<path d="M3441 608 c-23 -13 -30 -37 -7 -29 35 12 69 12 77 0 12 -21 -10 -39
-48 -39 -33 0 -83 -35 -83 -60 0 -31 70 -65 85 -40 3 5 19 7 35 3 27 -5 30 -3
30 21 0 14 5 46 12 71 10 38 10 47 -3 60 -21 21 -70 28 -98 13z"/>
</g>
</svg>
